<svg xmlns="http://www.w3.org/2000/svg" viewBox="0 0 1506 862" fill="none"><path fill="#fff" d="M914 .5h255c186.12 0 337 150.88 337 337s-150.88 337-337 337H914V.5Z"/><path fill="#F0F0F0" d="M458 .5h255c186.12 0 337 150.88 337 337s-150.88 337-337 337H458V.5Z"/><path fill="#fff" d="M0 .5h255c186.12 0 337 150.88 337 337s-150.88 337-337 337H0V.5Z"/><path fill="#DA459C" d="M60.807 808.381H24.813v-26.946h35.994c4.905 0 8.883-.829 11.932-2.486 3.05-1.657 5.27-3.944 6.662-6.861 1.458-2.983 2.187-6.33 2.187-10.043 0-3.977-.729-7.656-2.187-11.037-1.392-3.38-3.613-6.098-6.662-8.153-3.05-2.121-7.027-3.182-11.932-3.182h-22.87V862h-34.9V712.727h57.77c11.6 0 21.577 2.121 29.929 6.364 8.418 4.242 14.882 10.076 19.389 17.5 4.508 7.358 6.762 15.776 6.762 25.256 0 9.346-2.254 17.5-6.762 24.46-4.507 6.96-10.97 12.396-19.389 16.307-8.352 3.844-18.329 5.767-29.929 5.767ZM234.131 828.5v32h-77.159v-32h77.159ZM173 710v150.5h-38.5V710H173Zm46 60.699v29.23h-61.528v-29.23H219ZM232.5 710v32.06h-75.528V710H232.5ZM254 712.727h60.748c11.136 0 20.814 1.657 29.034 4.972 8.22 3.314 14.55 8.22 18.991 14.716 4.508 6.496 6.762 14.517 6.762 24.062 0 8.286-1.293 15.213-3.878 20.781-2.585 5.569-6.198 10.176-10.838 13.822-4.574 3.579-9.91 6.529-16.009 8.849l-11.434 6.463h-47.827l-.199-26.946h27.051c4.441 0 8.12-.795 11.037-2.386 2.916-1.591 5.104-3.845 6.562-6.762 1.525-2.983 2.287-6.529 2.287-10.639 0-4.176-.762-7.756-2.287-10.739-1.524-2.983-3.778-5.269-6.761-6.86-2.917-1.591-6.53-2.387-10.838-2.387h-13.727V860.5H254V712.727ZM337.021 860.5 295 793.466l46.992-.199L378 857.5l-3.593 3h-37.386ZM456.5 710v150.5h-37.9V710h37.9Zm40.551 0v32.06H376.043V710h121.008ZM619.797 770.199V800h-74.276v-29.801h74.276ZM557.155 710v150.5H515.5V710h41.655Zm90.345 0v150.5h-39.038V710H647.5Z"/><path fill="#fff" d="M770.972 832.648V858.5H669.949v-21.875l46.534-48.92c4.11-4.707 7.424-8.916 9.943-12.628 2.519-3.779 4.342-7.193 5.469-10.242 1.193-3.049 1.79-5.8 1.79-8.253 0-4.176-.63-7.656-1.89-10.44-1.193-2.85-2.983-5.005-5.369-6.463-2.32-1.458-5.204-2.188-8.651-2.188-3.446 0-6.463.995-9.048 2.983-2.585 1.989-4.607 4.707-6.065 8.154-1.392 3.447-2.088 7.325-2.088 11.633h-33.608c0-8.882 2.154-17.003 6.463-24.36 4.375-7.358 10.44-13.225 18.196-17.6 7.756-4.441 16.738-6.662 26.946-6.662 10.672 0 19.621 1.657 26.847 4.972 7.225 3.314 12.661 8.12 16.306 14.417 3.712 6.231 5.569 13.755 5.569 22.571 0 5.038-.796 9.877-2.387 14.517-1.591 4.641-3.878 9.248-6.861 13.821-2.983 4.508-6.628 9.148-10.937 13.921-4.243 4.773-9.082 9.844-14.517 15.213l-18.693 21.577h57.074ZM892.672 772.889v26.449c0 10.407-1.226 19.456-3.679 27.145-2.386 7.689-5.833 14.053-10.341 19.091-4.441 5.038-9.744 8.783-15.909 11.236-6.165 2.452-12.959 3.679-20.383 3.679-5.966 0-11.535-.763-16.705-2.287-5.17-1.591-9.844-3.978-14.02-7.159-4.11-3.249-7.656-7.292-10.639-12.131-2.983-4.839-5.27-10.54-6.861-17.102-1.591-6.629-2.386-14.12-2.386-22.472v-26.449c0-10.473 1.193-19.522 3.579-27.145 2.453-7.689 5.933-14.053 10.441-19.091 4.507-5.038 9.843-8.783 16.008-11.235 6.165-2.453 12.959-3.679 20.384-3.679 5.966 0 11.501.795 16.605 2.386 5.17 1.525 9.844 3.911 14.02 7.159 4.176 3.182 7.722 7.192 10.639 12.031 2.983 4.839 5.27 10.573 6.861 17.202 1.591 6.563 2.386 14.02 2.386 22.372Zm-33.508 30.526v-34.801c0-4.641-.266-8.684-.796-12.131-.464-3.447-1.193-6.364-2.187-8.75-.928-2.386-2.088-4.309-3.48-5.767-1.393-1.525-2.983-2.619-4.773-3.281-1.724-.73-3.646-1.094-5.767-1.094-2.652 0-5.038.563-7.159 1.69-2.055 1.061-3.812 2.784-5.27 5.171-1.459 2.386-2.585 5.568-3.381 9.545-.729 3.977-1.094 8.85-1.094 14.617v34.801c0 4.706.232 8.816.696 12.329.531 3.447 1.26 6.397 2.188 8.85.994 2.386 2.187 4.342 3.579 5.866 1.392 1.459 2.983 2.519 4.773 3.182 1.79.663 3.745.994 5.867.994 2.585 0 4.905-.53 6.96-1.591 2.055-1.06 3.811-2.784 5.27-5.17 1.524-2.453 2.651-5.668 3.38-9.645.796-4.043 1.194-8.982 1.194-14.815ZM1015.37 832.648V858.5H914.344v-21.875l46.534-48.92c4.11-4.707 7.425-8.916 9.944-12.628 2.518-3.779 4.341-7.193 5.468-10.242 1.193-3.049 1.79-5.8 1.79-8.253 0-4.176-.63-7.656-1.889-10.44-1.193-2.85-2.983-5.005-5.369-6.463-2.321-1.458-5.204-2.188-8.651-2.188s-6.463.995-9.048 2.983c-2.586 1.989-4.607 4.707-6.066 8.154-1.392 3.447-2.088 7.325-2.088 11.633h-33.608c0-8.882 2.155-17.003 6.463-24.36 4.375-7.358 10.441-13.225 18.196-17.6 7.756-4.441 16.738-6.662 26.946-6.662 10.673 0 19.622 1.657 26.847 4.972 7.225 3.314 12.657 8.12 16.307 14.417 3.71 6.231 5.57 13.755 5.57 22.571 0 5.038-.8 9.877-2.39 14.517-1.59 4.641-3.88 9.248-6.86 13.821-2.982 4.508-6.628 9.148-10.937 13.921-4.242 4.773-9.081 9.844-14.517 15.213l-18.693 21.577h57.077ZM1067.07 772.094h16.3c4.18 0 7.59-.729 10.25-2.188 2.71-1.524 4.74-3.646 6.06-6.363 1.33-2.785 1.99-6.066 1.99-9.844 0-2.917-.63-5.602-1.89-8.054-1.19-2.453-3.05-4.408-5.57-5.867-2.52-1.524-5.73-2.287-9.64-2.287-2.65 0-5.24.564-7.76 1.691-2.52 1.06-4.61 2.585-6.26 4.574-1.59 1.988-2.39 4.408-2.39 7.258h-33.61c0-8.22 2.26-15.246 6.76-21.079 4.58-5.9 10.58-10.408 18-13.523 7.49-3.182 15.55-4.773 24.16-4.773 10.28 0 19.29 1.591 27.05 4.773 7.75 3.115 13.79 7.756 18.1 13.92 4.37 6.099 6.56 13.656 6.56 22.671 0 4.971-1.16 9.645-3.48 14.02-2.32 4.375-5.57 8.219-9.75 11.534-4.17 3.314-9.08 5.933-14.71 7.855-5.57 1.856-11.67 2.784-18.3 2.784h-21.87v-17.102Zm0 24.957v-16.704h21.87c7.23 0 13.82.828 19.79 2.485 5.97 1.591 11.1 3.978 15.41 7.159 4.31 3.182 7.62 7.126 9.94 11.833 2.32 4.64 3.48 9.976 3.48 16.008 0 6.762-1.35 12.794-4.07 18.097-2.72 5.303-6.53 9.777-11.44 13.423-4.9 3.646-10.64 6.43-17.2 8.353-6.56 1.856-13.69 2.784-21.38 2.784-6.03 0-12.06-.796-18.09-2.387-6.04-1.657-11.54-4.176-16.51-7.557-4.97-3.447-8.98-7.822-12.03-13.125-2.98-5.369-4.47-11.766-4.47-19.19h33.6c0 3.049.83 5.833 2.49 8.352 1.72 2.453 4.01 4.408 6.86 5.867 2.85 1.458 5.93 2.187 9.25 2.187 4.11 0 7.59-.762 10.44-2.287 2.91-1.591 5.14-3.712 6.66-6.363 1.52-2.652 2.29-5.602 2.29-8.85 0-4.905-.83-8.816-2.49-11.733-1.59-2.916-3.94-5.038-7.06-6.363-3.05-1.326-6.73-1.989-11.04-1.989h-16.3Z"/></svg>
