<svg xmlns="http://www.w3.org/2000/svg" viewBox="0 0 28 28" fill="none"><path fill="#fff" d="m21.224 13.762 1.049-1.095 1.533 1.419L28 9.708l-3.222-2.973a2.798 2.798 0 0 1-3.932.106 2.714 2.714 0 0 1-.105-3.868L17.52 0l-4.223 4.39 1.533 1.418-1.048 1.095-1.533-1.419L0 18.292l3.222 2.973a2.798 2.798 0 0 1 3.932-.106 2.69 2.69 0 0 1 .105 3.868L10.48 28l12.276-12.82-1.533-1.418Zm-14.766 2.23 5.803-6.05 1.113 1.03-5.805 6.051-1.11-1.03Zm2.4 2.252 5.803-6.05 1.112 1.03-5.804 6.051-1.11-1.03Zm3.54 3.273-1.112-1.03 5.803-6.052 1.113 1.03-5.803 6.052Zm2.628-13.505 1.048-1.095 1.853 1.717-1.048 1.095-1.853-1.717Zm3.09 2.895 1.049-1.095 1.853 1.718-1.02 1.083-1.882-1.706Z"/></svg>
