<svg xmlns="http://www.w3.org/2000/svg" viewBox="0 0 52 52" fill="none"><g fill="currentColor" clip-path="url(#a)"><path d="M36.949 16H15.307c-.342.002-.68.081-.988.231L26.077 27.99l2.635-2.532 9.225-9.226a2.282 2.282 0 0 0-.988-.231Zm2.077 1.32L30.343 26l8.681 8.681c.151-.308.23-.646.232-.988V18.305a2.28 2.28 0 0 0-.231-.985Zm-25.795-.001c-.15.308-.23.646-.231.989v15.387c.002.343.08.68.23.989L21.916 26l-8.684-8.681Z"/><path d="M29.257 27.087 26.62 29.62a.767.767 0 0 1-1.087 0l-2.533-2.533-8.682 8.68c.308.151.646.23.99.232h21.64c.343-.002.68-.08.988-.231l-8.68-8.68Z"/></g><defs><clipPath id="a"><path fill="currentColor" d="M13 16h26.256v20H13z"/></clipPath></defs></svg>
