<svg xmlns="http://www.w3.org/2000/svg" viewBox="0 0 52 52" fill="none"><g clip-path="url(#a)"><path fill="currentColor" d="M31.98 14H20.02A6.032 6.032 0 0 0 14 20.02V32a6.028 6.028 0 0 0 6.02 6H32a6.032 6.032 0 0 0 6.02-6.02V20.02A6.06 6.06 0 0 0 31.98 14ZM21.562 29.485A3.486 3.486 0 1 1 25.105 26a3.51 3.51 0 0 1-3.543 3.485Zm8.876 0A3.487 3.487 0 1 1 33.981 26a3.512 3.512 0 0 1-3.543 3.485Z"/></g><defs><clipPath id="a"><path fill="currentColor" d="M14 14h24.019v24H14z"/></clipPath></defs></svg>
