<svg xmlns="http://www.w3.org/2000/svg" viewBox="0 0 52 52" fill="none"><path fill="currentColor" fill-rule="evenodd" d="M26.378 14c2.916 0 3.34.016 4.57.072 1.276.059 2.149.262 2.912.558a5.881 5.881 0 0 1 2.126 1.384c.61.6 1.083 1.325 1.384 2.126.296.763.5 1.636.558 2.912.058 1.28.072 1.689.072 4.948v.096c0 3.172-.014 3.584-.072 4.852-.059 1.276-.262 2.149-.558 2.912a5.881 5.881 0 0 1-1.384 2.126 5.881 5.881 0 0 1-2.126 1.384c-.763.296-1.636.5-2.912.558-1.28.058-1.689.072-4.948.072h-.096c-3.172 0-3.584-.014-4.852-.072-1.276-.059-2.149-.262-2.912-.558a5.881 5.881 0 0 1-2.126-1.384 5.881 5.881 0 0 1-1.384-2.126c-.296-.763-.5-1.636-.558-2.912-.056-1.23-.072-1.655-.072-4.57v-.756c0-2.916.016-3.34.072-4.57.059-1.276.262-2.149.558-2.912a5.881 5.881 0 0 1 1.384-2.126 5.881 5.881 0 0 1 2.126-1.384c.763-.296 1.636-.5 2.912-.558 1.23-.056 1.655-.072 4.57-.072h.756Zm-.097 2.162h-.562c-2.947 0-3.34.014-4.568.07-1.17.054-1.805.248-2.229.413-.56.218-.96.477-1.38.897-.42.42-.679.82-.897 1.38-.165.424-.36 1.059-.413 2.229-.056 1.227-.07 1.621-.07 4.568v.562c0 2.947.014 3.34.07 4.568.054 1.17.248 1.805.413 2.229.218.559.479.96.897 1.38.42.42.82.679 1.38.897.424.165 1.059.36 2.229.413 1.265.058 1.644.07 4.849.07h.096c3.116 0 3.5-.012 4.752-.07 1.171-.054 1.806-.248 2.23-.413.559-.218.96-.477 1.38-.897.42-.42.679-.82.897-1.38.165-.424.36-1.059.413-2.229.058-1.266.07-1.644.07-4.849v-.096c0-3.116-.012-3.5-.07-4.752-.054-1.171-.248-1.806-.413-2.23a3.717 3.717 0 0 0-.897-1.38 3.717 3.717 0 0 0-1.38-.897c-.424-.165-1.059-.36-2.229-.413-1.227-.056-1.621-.07-4.568-.07ZM26 19.838a6.161 6.161 0 1 1 0 12.323 6.161 6.161 0 0 1 0-12.323ZM26 22A4 4 0 1 0 26 30 4 4 0 0 0 26 22Zm6.406-3.846a1.44 1.44 0 1 1 0 2.88 1.44 1.44 0 0 1 0-2.88Z" clip-rule="evenodd"/></svg>
