<svg xmlns="http://www.w3.org/2000/svg" viewBox="0 0 52 52" fill="none"><path fill="currentColor" d="M38 15.764v20.472A1.764 1.764 0 0 1 36.236 38H15.764A1.764 1.764 0 0 1 14 36.236V15.764A1.764 1.764 0 0 1 15.764 14h20.472A1.764 1.764 0 0 1 38 15.764Zm-16.942 7.414H17.53v11.294h3.528V23.176v.002Zm.318-3.882a2.032 2.032 0 0 0-2.018-2.048h-.064a2.047 2.047 0 1 0 0 4.095 2.035 2.035 0 0 0 2.082-1.984v-.063Zm13.095 8.316c0-3.396-2.16-4.716-4.306-4.716a4.023 4.023 0 0 0-3.572 1.82h-.099v-1.54h-3.318v11.295h3.53v-6.007a2.344 2.344 0 0 1 2.118-2.528h.134c1.122 0 1.956.706 1.956 2.484v6.05h3.528l.029-6.86v.002Z"/></svg>
