<svg xmlns="http://www.w3.org/2000/svg" viewBox="0 0 52 52" fill="none"><g clip-path="url(#a)"><path fill="currentColor" d="m37.572 17.585 2.218-2.12V15h-7.682l-5.473 13.626L20.405 15h-8.054v.464l2.59 3.119a1.086 1.086 0 0 1 .35.906v12.255a1.395 1.395 0 0 1-.373 1.215L12 36.495v.46h8.273v-.465l-2.918-3.53a1.441 1.441 0 0 1-.402-1.216v-10.6l7.263 15.816h.844l6.245-15.816v12.6c0 .331 0 .4-.218.618l-2.247 2.172V37H39.74v-.464l-2.165-2.12a.644.644 0 0 1-.248-.619V18.204a.642.642 0 0 1 .246-.619Z"/></g><defs><clipPath id="a"><path fill="currentColor" d="M12 15h27.79v22H12z"/></clipPath></defs></svg>
