<svg xmlns="http://www.w3.org/2000/svg" viewBox="0 0 52 52" fill="none"><g clip-path="url(#a)"><path fill="currentColor" d="m40.677 16.923-2.588-.338.675-2.522-3.031.813a6.303 6.303 0 0 0-9.507 5.425v.817a15.102 15.102 0 0 1-11.052-5.726l-.706-.887-.642.932c-.255.37-.47.766-.642 1.181a6.275 6.275 0 0 0-.273 4.032c.209.792.568 1.536 1.058 2.191l-.998.24.196.817a6.313 6.313 0 0 0 4.16 4.534l-.983 1.15.641.546a6.293 6.293 0 0 0 3.393 1.476A12.692 12.692 0 0 1 12 34.744l.36.25a16.86 16.86 0 0 0 21.53-1.932 16.748 16.748 0 0 0 4.937-11.92V20.3c0-.295-.02-.59-.061-.882l1.91-2.496Z"/></g><defs><clipPath id="a"><path fill="currentColor" d="M12 14h28.677v24H12z"/></clipPath></defs></svg>
