<svg xmlns="http://www.w3.org/2000/svg" viewBox="0 0 52 52" fill="none"><g clip-path="url(#a)"><path fill="currentColor" d="M40.774 18.442a3.936 3.936 0 0 0-2.77-2.769c-2.458-.671-12.29-.671-12.29-.671s-9.836 0-12.292.647a4.017 4.017 0 0 0-2.775 2.793C10 20.9 10 26 10 26s0 5.125.647 7.558a3.937 3.937 0 0 0 2.77 2.77c2.485.67 12.291.67 12.291.67s9.836 0 12.292-.647a3.937 3.937 0 0 0 2.77-2.769c.647-2.459.647-7.558.647-7.558s.03-5.125-.643-7.582ZM22.58 30.711V21.29L30.755 26l-8.176 4.71Z"/></g><defs><clipPath id="a"><path fill="currentColor" d="M10 15h31.422v22H10z"/></clipPath></defs></svg>
